<svg width="1080" height="1025" viewBox="0 0 1080 1025" fill="none" xmlns="http://www.w3.org/2000/svg">
<g id="Group">
<path id="Vector" d="M676.425 518.035C659.76 505.923 650.945 491.474 657.46 470.247C679.581 398.618 753.652 339.514 738.543 260.58C730.73 220.053 696.758 184.182 648.36 156.467C419.422 25.768 203.915 77.7943 138.92 114.493C72.307 152.086 108.031 227.103 143.112 275.854C186.303 335.933 241.024 395.959 247.335 461.623C253.986 530.955 287.059 689.052 331.201 758.069C362.346 806.761 439.629 875.062 517.467 883.978C595.305 892.894 671.776 844.659 730.638 815.204C789.499 785.748 1035.73 929.709 1063.39 883.927C1100.59 822.365 1018.02 744.629 958.797 694.781C898.747 644.248 829.18 598.708 753.595 558.07C725.581 543.089 695.745 532.118 676.425 518.035Z" stroke="#1D0FBF" stroke-opacity="0.2" stroke-width="3"/>
<path id="Vector_2" d="M128.991 103.156C58.0041 143.191 96.1923 223.199 133.486 275.147C179.412 339.169 237.928 403.161 244.501 473.172C251.541 547.062 271.628 699.355 318.739 772.93C351.937 824.899 433.975 891.39 517.053 900.907C591.299 909.412 664.08 866.934 721.829 840.588C781.335 813.462 1004.4 937.114 1035.71 894.005C1078.91 834.307 1015.55 758.282 968.588 706.011C921.498 653.529 861.77 605.486 793.468 562.151C768.153 546.106 740.75 533.745 722.139 518.762C706.15 506.042 696.908 491.348 700.33 470.648C705.555 439.463 717.211 410.388 727.028 381.494C735.449 356.855 742.35 332.238 741.845 306.086C741.623 293.406 739.029 280.258 734.105 266.254C720.55 228.209 684.788 193.407 634.682 164.713C560.215 122.24 487.159 95.3312 419.086 80.5684C291.533 52.812 179.238 74.7734 128.991 103.156Z" stroke="#1D0FBF" stroke-opacity="0.2" stroke-width="3"/>
<path id="Vector_3" d="M118.911 91.8007C43.5518 134.278 84.0541 219.26 123.711 274.422C172.522 342.404 234.532 410.329 241.667 484.72C249.098 563.168 256.188 709.755 306.117 787.871C341.378 843.02 428.311 907.815 516.329 917.898C587.132 926.009 656.235 889.191 712.711 866.035C773.01 841.256 973.06 944.711 1007.56 904.127C1056.92 846.311 1012.46 772.058 977.908 717.383C943.468 663.015 894.039 612.423 833.02 566.39C810.543 549.395 785.573 535.646 767.532 519.649C752.231 506.223 742.423 491.169 742.741 471.095C743.237 440.153 747.138 411.268 748.866 382.821C750.396 358.766 750.513 335.138 744.581 310.031C741.693 298.125 736.454 285.557 729.196 272.071C710.337 236.655 672.197 202.758 620.682 173.117C548.384 131.58 477.221 101.356 409.091 81.7793C290.76 47.6237 176.125 59.5074 118.911 91.8007Z" stroke="#1D0FBF" stroke-opacity="0.2" stroke-width="3"/>
<path id="Vector_4" d="M108.833 80.4453C29.0887 125.461 71.9162 215.321 113.776 273.777C165.471 345.719 231.114 417.69 238.523 496.331C246.493 579.353 240.448 720.12 293.195 802.778C330.52 861.106 422.198 924.189 515.455 934.872C582.666 942.571 648.38 911.545 703.592 891.481C764.675 869.147 941.726 952.211 979.567 914.265C1035.23 858.349 1009.52 785.949 987.389 728.675C965.749 672.437 926.469 619.281 872.744 570.453C852.956 552.491 830.569 537.37 813.087 520.456C798.473 506.323 788.088 491.007 785.451 471.576C781.219 440.877 777.364 412.182 771.015 384.085C765.643 360.711 759.136 337.991 747.627 313.914C742.234 302.701 734.328 290.907 724.759 277.745C700.746 244.975 660.228 211.983 607.154 181.379C536.852 140.953 467.711 107.625 399.417 82.8308C289.887 43.3067 173.013 44.2412 108.833 80.4453Z" stroke="#1D0FBF" stroke-opacity="0.2" stroke-width="3"/>
<path id="Vector_5" d="M98.7551 69.0891C14.6381 116.547 59.7797 211.381 104.003 273.051C158.422 349.033 227.72 424.856 235.691 507.879C244.051 595.458 225.008 730.518 280.735 817.638C320.113 879.242 416.697 940.533 515.033 951.896C578.651 959.183 641.113 934.064 694.786 916.864C756.79 897.088 910.831 959.859 951.894 924.244C1014.16 870.26 1006.73 799.759 997.182 739.903C988.02 681.956 959.05 626.154 912.609 574.629C895.658 555.716 875.704 539.206 858.782 521.376C844.844 506.634 833.893 490.959 828.164 472.056C818.914 441.468 807.73 413.21 793.154 385.446C781.192 362.689 767.76 340.844 750.503 317.972C742.604 307.454 732.044 296.336 719.991 283.674C691.133 253.489 647.777 221.447 593.295 189.896C525 150.485 457.826 114.537 389.402 84.2345C288.8 39.5528 170.064 28.8944 98.7551 69.0891Z" stroke="#1D0FBF" stroke-opacity="0.2" stroke-width="3"/>
<path id="Vector_6" d="M88.6757 57.733C0.185584 107.633 47.6413 207.441 94.2275 272.325C151.531 352.267 224.474 432.04 232.718 519.312C241.469 611.449 209.29 740.688 267.973 832.463C309.415 897.247 410.744 956.825 514.319 968.788C574.345 975.664 633.555 956.45 685.678 942.212C748.753 925.011 879.795 967.392 923.759 934.267C992.767 882.331 1003.19 813.579 1006.51 751.176C1009.68 691.502 991.169 633.073 952.033 578.657C937.76 558.873 920.399 540.894 904.197 522.067C890.935 506.716 879.269 490.665 870.735 472.421C856.457 442.043 838.128 413.946 815.153 386.692C796.588 364.651 776.532 343.714 753.399 321.837C743.144 312.029 730.089 301.509 715.403 289.33C682.012 261.666 635.646 230.751 579.467 198.123C513.179 159.726 447.478 121.495 379.278 85.2339C287.196 36.3287 166.951 13.6275 88.6757 57.733Z" stroke="#1D0FBF" stroke-opacity="0.2" stroke-width="3"/>
<path id="Vector_7" d="M78.7358 46.4907C-14.1274 98.8332 35.6534 203.518 84.453 271.598C144.641 355.501 221.078 439.205 229.884 530.858C239.175 627.57 193.86 750.988 255.362 847.304C298.867 915.267 405.08 973.247 513.606 985.679C570.189 992.16 625.987 978.932 676.569 967.559C740.705 953.029 848.897 975.037 895.772 944.306C971.662 894.531 999.8 827.319 1016 762.369C1031.36 700.854 1023.46 639.813 991.756 582.717C980.171 561.967 965.244 542.599 949.751 522.872C937.176 506.814 924.784 490.484 913.445 472.9C893.989 442.713 868.802 414.91 837.301 387.954C812.144 366.532 785.325 346.39 756.444 325.718C743.683 316.605 728.134 306.681 710.804 295.082C673.051 269.764 623.365 240.038 565.788 206.367C501.507 168.985 436.798 128.709 369.444 86.3643C284.96 33.3265 163.839 -1.63947 78.7358 46.4907Z" stroke="#1D0FBF" stroke-opacity="0.2" stroke-width="3"/>
<path id="Vector_8" d="M68.6575 35.134C-28.5896 90.0154 23.6548 199.692 74.8176 270.985C137.89 358.848 217.971 446.501 227.04 542.501C236.721 643.769 178.408 761.48 242.879 862.354C288.287 933.577 399.405 989.764 513.17 1002.8C566.16 1008.87 618.823 1001.85 667.888 993.149C733.211 981.503 818.415 983.022 868.213 954.588C950.961 907.169 996.69 841.285 1025.76 773.885C1053.16 710.512 1055.85 646.958 1031.6 587.085C1022.7 565.367 1010.21 544.61 995.422 523.983C983.373 507.299 970.265 490.592 956.132 473.572C931.476 443.77 899.326 415.856 859.415 389.506C827.828 368.623 794.235 349.373 759.445 329.986C744.329 321.583 726.296 312.16 706.172 301.124C664.068 278.055 611.05 249.615 552.065 214.997C489.814 178.437 425.464 136.338 359.588 87.6879C282.253 30.466 160.728 -16.9069 68.6575 35.134Z" stroke="#1D0FBF" stroke-opacity="0.2" stroke-width="3"/>
<path id="Vector_9" d="M762.499 333.769C673.752 294.173 509.342 226.584 349.74 88.9146C278.785 27.6165 157.764 -32.1572 58.5776 23.7773C-43.0424 81.1007 11.516 195.751 64.8921 270.24C130.7 362.046 214.425 453.648 224.055 554.028C234.276 659.872 162.828 771.761 230.116 877.176C277.588 951.578 393.6 1006.07 512.455 1019.68C631.309 1033.3 750.191 1009.44 840.086 964.511C929.992 919.481 992.874 854.778 1035.11 784.962C1120.73 643.206 1083.39 498.548 881.434 390.557C843.416 370.212 803.049 351.854 762.499 333.769Z" stroke="#1D0FBF" stroke-opacity="0.2" stroke-width="3"/>
</g>
</svg>
