<svg width="16" height="16" viewBox="0 0 16 16" fill="none" xmlns="http://www.w3.org/2000/svg">
<g id="instagram icon">
<path id="Vector" d="M15.9366 4.70407C15.8992 3.85392 15.7619 3.26946 15.5652 2.76301C15.3623 2.22542 15.0501 1.74412 14.6411 1.34402C14.2415 0.937688 13.7576 0.621951 13.2269 0.42196C12.7182 0.225021 12.1375 0.087542 11.2884 0.0500589C10.4329 0.00940129 10.1614 0 7.99173 0C5.8221 0 5.55053 0.00940129 4.69826 0.0468844C3.84917 0.0843675 3.26542 0.221968 2.75972 0.418785C2.22267 0.621951 1.74197 0.934514 1.34236 1.34402C0.936531 1.74412 0.621305 2.2286 0.421439 2.75995C0.224743 3.26946 0.0874339 3.85075 0.0499971 4.7009C0.00938969 5.55739 0 5.8293 0 8.00161C0 10.1739 0.00938969 10.4458 0.0468265 11.2991C0.0842634 12.1493 0.221694 12.7338 0.41839 13.2402C0.621305 13.7778 0.936531 14.2591 1.34236 14.6592C1.74197 15.0655 2.22585 15.3813 2.75655 15.5813C3.26542 15.7782 3.84599 15.9157 4.69521 15.9532C5.54736 15.9908 5.81905 16 7.98868 16C10.1583 16 10.4299 15.9908 11.2821 15.9532C12.1312 15.9157 12.715 15.7782 13.2207 15.5813C14.2947 15.1655 15.1437 14.3154 15.559 13.2402C15.7555 12.7307 15.893 12.1493 15.9304 11.2991C15.9678 10.4458 15.9772 10.1739 15.9772 8.00161C15.9772 5.8293 15.9741 5.55739 15.9366 4.70407ZM14.4976 11.2366C14.4632 12.018 14.3321 12.44 14.2228 12.7213C13.9543 13.4183 13.4018 13.9716 12.7056 14.2404C12.4246 14.3498 12.0002 14.4811 11.2228 14.5154C10.3799 14.553 10.1271 14.5623 7.9949 14.5623C5.86271 14.5623 5.60675 14.553 4.76692 14.5154C3.98647 14.4811 3.56504 14.3498 3.28408 14.2404C2.93763 14.1122 2.62229 13.909 2.36633 13.6434C2.10097 13.3839 1.89806 13.0714 1.77002 12.7245C1.66076 12.4432 1.52967 12.018 1.4954 11.2398C1.45784 10.3959 1.44857 10.1427 1.44857 8.00783C1.44857 5.87301 1.45784 5.61673 1.4954 4.77598C1.52967 3.99458 1.66076 3.57262 1.77002 3.29131C1.89806 2.94432 2.10097 2.6287 2.3695 2.3723C2.6285 2.10662 2.94068 1.90346 3.28725 1.77538C3.56821 1.66598 3.99282 1.53473 4.77009 1.5003C5.61296 1.46282 5.86588 1.45342 7.99795 1.45342C10.1333 1.45342 10.3861 1.46282 11.2259 1.5003C12.0064 1.53473 12.4278 1.66598 12.7088 1.77538C13.0552 1.90346 13.3706 2.10662 13.6265 2.3723C13.8919 2.63175 14.0948 2.94432 14.2228 3.29131C14.3321 3.57262 14.4632 3.99763 14.4976 4.77598C14.535 5.6199 14.5444 5.87301 14.5444 8.00783C14.5444 10.1427 14.535 10.3927 14.4976 11.2366Z" fill="#2E2E2E"/>
<path id="Vector_2" d="M7.99052 3.89432C5.72419 3.89432 3.8854 5.73526 3.8854 8.00452C3.8854 10.2738 5.72419 12.1147 7.99052 12.1147C10.257 12.1147 12.0956 10.2738 12.0956 8.00452C12.0956 5.73526 10.257 3.89432 7.99052 3.89432ZM7.99052 10.6707C6.52024 10.6707 5.32763 9.47674 5.32763 8.00452C5.32763 6.5323 6.52024 5.33833 7.99052 5.33833C9.46092 5.33833 10.6534 6.5323 10.6534 8.00452C10.6534 9.47674 9.46092 10.6707 7.99052 10.6707Z" fill="#2E2E2E"/>
<path id="Vector_3" d="M13.218 3.72689C13.218 4.25668 12.7889 4.68625 12.2597 4.68625C11.7305 4.68625 11.3015 4.25668 11.3015 3.72689C11.3015 3.19698 11.7305 2.76753 12.2597 2.76753C12.7889 2.76753 13.218 3.19698 13.218 3.72689Z" fill="#2E2E2E"/>
</g>
</svg>
