<svg width="40" height="40" viewBox="0 0 40 40" fill="none" xmlns="http://www.w3.org/2000/svg">
<g id="icon">
<circle id="Ellipse 8" opacity="0.1" cx="20" cy="20" r="19.5" stroke="#2E2E2E"/>
<path id="Vector" d="M26.736 19.7622C26.0407 18.5683 25.0972 17.623 23.9041 16.9275C22.7118 16.2321 21.4105 15.884 20.0004 15.884C18.5903 15.884 17.2891 16.2321 16.096 16.9275C14.9037 17.623 13.9594 18.5683 13.2649 19.7622C12.5703 20.956 12.2227 22.2596 12.2227 23.6714C12.2227 25.0833 12.5695 26.3869 13.2649 27.5807C13.9602 28.7753 14.9037 29.7199 16.0968 30.4153C17.2891 31.1107 18.5903 31.4588 20.0004 31.4588C21.4105 31.4588 22.7118 31.1107 23.9049 30.4153C25.0972 29.7199 26.0414 28.7753 26.7368 27.5807C27.4313 26.3869 27.7782 25.0833 27.7782 23.6714C27.7782 22.2596 27.4313 20.956 26.736 19.7622ZM20.0004 17.1767C21.556 17.1767 22.9342 17.6751 24.1382 18.6711C23.4227 19.5854 22.3602 20.3376 20.9493 20.9295C20.17 19.5176 19.3253 18.3386 18.413 17.394C18.9434 17.2492 19.4708 17.1767 20.0004 17.1767ZM14.9527 19.622C15.5391 18.8845 16.2407 18.309 17.0612 17.8932C18.0039 18.8284 18.8695 19.9958 19.659 21.3975C18.1034 21.8648 16.4592 22.0984 14.7271 22.0984C14.2814 22.0984 13.9447 22.0882 13.716 22.0672C13.9548 21.174 14.367 20.3594 14.9527 19.622ZM13.5138 23.6714C13.5138 23.6294 13.5161 23.578 13.5215 23.5157C13.527 23.4534 13.5293 23.402 13.5293 23.3599C13.7269 23.3708 14.0279 23.3755 14.4323 23.3755C16.5059 23.3755 18.4348 23.0897 20.2182 22.5189C20.3637 22.8094 20.5145 23.1364 20.6693 23.5001C19.6427 23.7283 18.5895 24.2835 17.5108 25.1666C16.432 26.0497 15.6449 26.9787 15.1471 27.9545C14.0582 26.7186 13.5138 25.2912 13.5138 23.6714ZM20.0004 30.1661C18.5273 30.1661 17.2051 29.709 16.033 28.7963C16.5004 27.8719 17.2183 26.9881 18.1882 26.1478C19.1573 25.3068 20.1194 24.7827 21.0738 24.5748C21.6742 26.2358 22.0794 27.9537 22.2871 29.73C21.5295 30.0205 20.7673 30.1661 20.0004 30.1661ZM25.5071 27.0823C24.9891 27.9124 24.3202 28.5931 23.5004 29.1234C23.3138 27.5036 22.956 25.9251 22.4279 24.3879C23.1528 24.3365 23.8007 24.31 24.3723 24.31C24.9938 24.31 25.6837 24.3365 26.4404 24.3879C26.3362 25.3535 26.0251 26.2514 25.5071 27.0823ZM24.5427 23.1886C23.6404 23.1886 22.8059 23.2252 22.0382 23.2976C21.8407 22.7891 21.6649 22.3686 21.5093 22.0361C23.1162 21.3305 24.2564 20.4739 24.9308 19.4662C25.8641 20.5674 26.3728 21.8235 26.4552 23.2353C25.8237 23.2042 25.1859 23.1886 24.5427 23.1886Z" fill="#2E2E2E"/>
</g>
</svg>
