<svg width="22" height="17" viewBox="0 0 22 17" fill="none" xmlns="http://www.w3.org/2000/svg">
<path id="Fill 7" fill-rule="evenodd" clip-rule="evenodd" d="M19.9942 4.23619C20.6647 4.23619 21.1043 4.46729 21.544 4.97352C21.9836 5.47975 22.0606 6.20608 21.9617 6.86528L20.9175 14.0846C20.7196 15.4723 19.5326 16.4947 18.1366 16.4947H6.14502C4.68316 16.4947 3.4741 15.3721 3.3532 13.9206L2.34199 1.92404L0.682283 1.63791C0.242627 1.56087 -0.0651328 1.13168 0.0118071 0.691478C0.088747 0.240273 0.517412 -0.0568623 0.96806 0.0091677L3.58951 0.405348C3.96322 0.472478 4.23801 0.779518 4.27098 1.15369L4.47982 3.61881C4.51279 3.97207 4.79857 4.23619 5.15029 4.23619H19.9942ZM13.3334 9.96005H16.378C16.8396 9.96005 17.2023 9.58588 17.2023 9.13468C17.2023 8.67247 16.8396 8.3093 16.378 8.3093H13.3334C12.8717 8.3093 12.509 8.67247 12.509 9.13468C12.509 9.58588 12.8717 9.96005 13.3334 9.96005Z" fill="#2E2E2E"/>
</svg>
